# xmcd
#
# Track frame offsets:
#	150
#	17269
#	34680
#	57052
#	77826
#	100220
#	115471
#	141445
#	158859
#	176261
#	202622
#	219124
#	235380
#
# Disc length: 3445 seconds
#
# Revision: 1
# Processed by: cddbd v1.4PL0 Copyright (c) Steve Scherf et al.
# Submitted via: EasyCDDAExtractor 5.0.6
#
DISCID=9d0d730d
DTITLE=Various Artist - That's It
DYEAR=2000
DGENRE=Blues
TTITLE0=David Raitt/Jimmy thackery - I'd Rather Be Blind, Crippled and Crazy
TTITLE1=David Raitt/Jimmy thackery - Tell Me
TTITLE2=David Raitt/Jimmy thackery - Me
TTITLE3=David Raitt/Jimmy thackery - Same Thing
TTITLE4=David Raitt/Jimmy thackery - How Many More Years
TTITLE5=David Raitt/Jimmy thackery - Seven Days
TTITLE6=David Raitt/Jimmy thackery - Watch Your Back
TTITLE7=David Raitt/Jimmy thackery - It Takes Time
TTITLE8=David Raitt/Jimmy thackery - Cheaper To Keep Her
TTITLE9=David Raitt/Jimmy thackery - That's It!
TTITLE10=David Raitt/Jimmy thackery - Driving Wheel
TTITLE11=David Raitt/Jimmy thackery - Dirty And In Love
TTITLE12=David Raitt and Jimmy Thackery - Cold Heart
EXTD=
EXTT0=
EXTT1=
EXTT2=
EXTT3=
EXTT4=
EXTT5=
EXTT6=
EXTT7=
EXTT8=
EXTT9=
EXTT10=
EXTT11=
EXTT12=
PLAYORDER=
